PathFileType	4	(X/Y/Z)	1H_nor_slow_right.trc
DataRate	CameraRate	NumFrames	NumMarkers	Units	OrigDataRate	OrigDataStartFrame	OrigNumFrames
250.00	250.00	10	18	mm	250.00	3184	25471
Frame#	Time	c7	r_should	l_should	clavicle	r_upa	r_elb_l	r_elb_m	r_low	r_wri_l	r_wri_m	r_met	l_upa	l_elb_l	l_elb_m	l_low	l_wri_l	l_wri_m	l_met
	X1	Y1	Z1	X2	Y2	Z2	X3	Y3	Z3	X4	Y4	Z4	X5	Y5	Z5	X6	Y6	Z6	X7	Y7	Z7	X8	Y8	Z8	X9	Y9	Z9	X10	Y10	Z10	X11	Y11	Z11	X12	Y12	Z12	X13	Y13	Z13	X14	Y14	Z14	X15	Y15	Z15	X16	Y16	Z16	X17	Y17	Z17	X18	Y18	Z18
3184	12.73200	1191.53137	1428.05957	172.63896	1256.26221	1374.47766	317.35995	1184.13416	1362.18555	-3.58046	1295.28320	1284.86060	146.62531	1296.11462	1179.26599	403.40536	1299.43628	1113.61768	428.40317	1222.98059	1068.78711	408.17007	1352.21790	1038.57739	355.21561	1396.29700	986.06421	266.29050	1364.63782	925.82367	300.96768	1457.12830	940.72919	254.71278	1165.26941	1153.94287	-72.75442	1172.72620	1050.18896	-91.97816	1133.36084	1034.61743	-4.84596	1213.47974	938.09131	-76.25706	1267.91638	835.26923	-27.86576	1195.58630	811.98346	-51.31808	1271.20166	753.62531	-71.22415
3185	12.73600	1191.81067	1428.95374	173.34215	1255.95190	1374.74866	317.20578	1184.16040	1362.20264	-3.58070	1295.30432	1284.85217	146.60503	1296.17908	1179.17725	403.36066	1299.50647	1113.45605	428.35144	1223.03174	1068.68286	408.12991	1352.30798	1038.26428	355.25412	1396.32678	985.48401	266.43158	1364.60120	925.33124	301.24408	1457.08899	940.05109	254.96880	1165.25085	1153.97522	-72.77279	1172.68298	1050.21594	-92.00288	1133.32471	1034.63892	-4.86848	1212.68970	938.95148	-76.91277	1267.84326	835.28674	-27.92010	1195.51892	811.99817	-51.34092	1271.11255	753.63672	-71.26765
3186	12.74000	1191.90991	1429.16980	173.52696	1255.92578	1374.76746	317.17868	1184.18066	1362.22607	-3.57876	1295.32617	1284.84302	146.58250	1296.23718	1179.09082	403.31351	1299.57520	1113.28601	428.29507	1223.08325	1068.58240	408.09094	1352.38464	1037.96191	355.28391	1396.34851	984.88733	266.57050	1364.56152	924.83185	301.52271	1457.05933	939.36121	255.22295	1165.23120	1154.01050	-72.79243	1172.64465	1050.24561	-92.03409	1133.28918	1034.67310	-4.89247	1213.64026	937.84473	-76.10305	1267.76782	835.30237	-27.96983	1195.44873	812.02179	-51.37632	1271.03723	753.65198	-71.30823
3187	12.74400	1191.85840	1428.82361	173.27588	1256.14233	1374.56421	317.24512	1184.19604	1362.25256	-3.57639	1295.34900	1284.83472	146.56595	1296.29993	1179.00256	403.26584	1299.64941	1113.11694	428.24301	1223.12524	1068.48022	408.05499	1352.45679	1037.66882	355.30524	1396.37671	984.28516	266.71130	1364.50806	924.32501	301.77496	1457.03796	938.66681	255.49144	1165.21252	1154.04004	-72.80652	1172.60999	1050.27490	-92.05083	1133.26025	1034.70105	-4.91991	1213.84241	937.58197	-75.92037	1267.70129	835.31891	-28.01414	1195.37524	812.05237	-51.41685	1270.96704	753.66937	-71.34910
3188	12.74800	1191.66638	1427.94080	172.61029	1256.59021	1374.15479	317.40668	1184.21094	1362.27954	-3.57270	1295.36719	1284.82861	146.54384	1296.36255	1178.91602	403.22809	1299.71814	1112.94507	428.19409	1223.17285	1068.37170	408.01340	1352.52258	1037.36731	355.32895	1396.40393	983.70251	266.85233	1364.47974	923.81836	302.00299	1457.00989	937.99640	255.75772	1165.19849	1154.07336	-72.82040	1172.57495	1050.30811	-92.07265	1133.22571	1034.73315	-4.94105	1213.85632	937.54303	-75.90157	1267.63403	835.33942	-28.05816	1195.30103	812.08203	-51.46437	1270.89722	753.68896	-71.39129
3189	12.75200	1191.64783	1427.71265	172.45470	1256.75403	1374.01477	317.45721	1184.22656	1362.30261	-3.56845	1295.38586	1284.82556	146.51680	1296.42419	1178.82898	403.19165	1299.79468	1112.77490	428.14880	1223.22620	1068.26355	407.96417	1352.59399	1037.05408	355.35217	1396.43933	983.12408	267.00687	1364.46191	923.30896	302.23672	1456.97119	937.34644	256.02399	1165.17944	1154.10596	-72.83488	1172.53711	1050.33997	-92.10446	1133.18042	1034.77502	-4.96860	1213.81995	937.55365	-75.91262	1267.57007	835.37189	-28.09827	1195.23303	812.11230	-51.50234	1270.83020	753.71265	-71.43697
3190	12.75600	1191.67688	1427.65723	172.42628	1256.83984	1373.94116	317.47375	1184.24146	1362.33032	-3.56761	1295.40479	1284.81909	146.49731	1296.48584	1178.73816	403.16043	1299.87146	1112.60645	428.10312	1223.27087	1068.16187	407.92474	1352.67175	1036.73401	355.37393	1396.46594	982.54846	267.16656	1364.44287	922.82898	302.49536	1456.96277	936.68042	256.30005	1165.15503	1154.13660	-72.84683	1172.49512	1050.37146	-92.12711	1133.13733	1034.81396	-4.99497	1213.77393	937.56915	-75.93968	1267.50574	835.39960	-28.12272	1195.16968	812.14258	-51.54075	1270.76538	753.73663	-71.47649
3191	12.76000	1191.70813	1427.64062	172.42877	1256.90930	1373.88257	317.48776	1184.25586	1362.35620	-3.56265	1295.42395	1284.81165	146.47862	1296.53674	1178.64294	403.11856	1299.95117	1112.43518	428.05719	1223.30066	1068.06262	407.89014	1352.38733	1036.74573	355.19778	1396.47034	981.96240	267.31174	1364.40845	922.35852	302.75873	1456.96021	935.99500	256.58270	1165.13599	1154.16992	-72.86608	1172.45801	1050.40588	-92.15260	1133.10254	1034.84937	-5.02206	1213.13062	938.27295	-76.46141	1267.44556	835.43707	-28.15934	1195.11133	812.18030	-51.58190	1270.70532	753.76196	-71.51849
3192	12.76400	1191.74268	1427.63708	172.44191	1256.97412	1373.82812	317.50113	1184.26660	1362.38306	-3.55377	1295.44312	1284.80920	146.46625	1296.58728	1178.55237	403.07819	1300.03333	1112.26404	428.01639	1223.33691	1067.95703	407.85043	1351.65564	1037.18542	354.78125	1396.47437	981.36316	267.43564	1364.36792	921.88098	303.01053	1456.93762	935.33093	256.86133	1165.12158	1154.20154	-72.88157	1172.42114	1050.44348	-92.17129	1133.06396	1034.88977	-5.04243	1212.34180	939.15125	-77.11440	1267.38586	835.45300	-28.19416	1195.04810	812.21716	-51.62144	1270.64026	753.79395	-71.56225
3193	12.76800	1191.77832	1427.64270	172.45549	1257.02832	1373.77722	317.51440	1184.27759	1362.41479	-3.54738	1295.15259	1285.19653	146.10881	1296.63037	1178.46106	403.04245	1300.11182	1112.09863	427.96890	1223.36865	1067.85034	407.80841	1351.87939	1036.73792	354.89548	1396.49976	980.75201	267.57642	1364.32947	921.39246	303.26401	1456.90918	934.68115	257.15005	1165.09790	1154.23828	-72.89515	1172.38525	1050.48328	-92.19273	1133.02637	1034.93091	-5.05909	1212.70898	938.73126	-76.80309	1267.33948	835.46930	-28.21324	1194.99146	812.25012	-51.66141	1270.57935	753.82648	-71.60214
